<svg width="18" height="18" viewBox="0 0 18 18" fill="none" xmlns="http://www.w3.org/2000/svg">
<path fill-rule="evenodd" clip-rule="evenodd" d="M5.34027 0.0157872C5.34027 0.0294796 6.19837 1.26697 7.2472 2.76575L9.15413 5.49075L9.80845 4.55422C10.5459 3.4986 10.7357 3.28453 11.0655 3.13607C11.2939 3.03324 11.3184 3.03198 13.2903 3.0191C15.2554 3.00631 15.2856 3.00748 15.3852 3.09968C15.604 3.30245 15.612 3.28871 13.5843 6.18429C12.5382 7.67797 11.671 8.92952 11.6572 8.96551C11.6418 9.00523 12.3901 10.113 13.559 11.781C15.6141 14.7137 15.6044 14.6972 15.3852 14.9003C15.2856 14.9925 15.2554 14.9937 13.2903 14.9809C11.3637 14.9684 11.2894 14.9647 11.0871 14.8716C10.7417 14.7128 10.5353 14.4845 9.84365 13.4962C9.48057 12.9774 9.16591 12.5592 9.14435 12.5668C9.10331 12.5814 5.34027 17.9402 5.34027 17.9841C5.34027 17.9979 7.90379 18.0039 11.037 17.9974L16.7337 17.9856L17.0349 17.8382C17.4081 17.6555 17.7482 17.2996 17.8949 16.9383L18 16.6794V9.00001V1.32057L17.8949 1.06172C17.7482 0.700451 17.4081 0.344539 17.0349 0.161854L16.7337 0.014391L11.037 0.00263534C7.90379 -0.00385051 5.34027 0.00204982 5.34027 0.0157872ZM0.461998 0.523891C0.365295 0.622981 0.225879 0.822511 0.152186 0.967272L0.0182056 1.23049L0.00629323 8.90993C-0.00693267 17.4578 -0.0304857 16.7981 0.305235 17.2828C0.397816 17.4165 0.513815 17.5519 0.562959 17.5837C0.646708 17.638 0.841609 17.371 3.67471 13.3214L6.69711 9.00118L3.72531 4.75551C2.09082 2.42037 0.727467 0.472455 0.695671 0.426784C0.641544 0.349088 0.626552 0.355304 0.461998 0.523891Z" fill="#6B7280"/>
</svg>
